<mxfile host="app.diagrams.net" agent="Mozilla/5.0 (Macintosh; Intel Mac OS X 10_15_7) AppleWebKit/537.36 (KHTML, like Gecko) Chrome/127.0.0.0 Safari/537.36" version="24.7.6">
  <diagram name="Page-1" id="CFPaYSYEO1XIbVWGu_L-">
    <mxGraphModel dx="1210" dy="766" grid="1" gridSize="10" guides="1" tooltips="1" connect="1" arrows="1" fold="1" page="1" pageScale="1" pageWidth="850" pageHeight="1100" math="0" shadow="0">
      <root>
        <mxCell id="0" />
        <mxCell id="1" parent="0" />
        <mxCell id="U1-PdnGOwfLw4nhCNqYM-1" value="" style="rounded=0;whiteSpace=wrap;html=1;fillColor=none;" vertex="1" parent="1">
          <mxGeometry x="30" y="70" width="760" height="140" as="geometry" />
        </mxCell>
        <mxCell id="U1-PdnGOwfLw4nhCNqYM-2" value="&lt;font style=&quot;font-size: 25px;&quot;&gt;链上DA&lt;/font&gt;" style="rounded=0;whiteSpace=wrap;html=1;fillColor=none;" vertex="1" parent="1">
          <mxGeometry x="50" y="95" width="170" height="90" as="geometry" />
        </mxCell>
        <mxCell id="U1-PdnGOwfLw4nhCNqYM-3" value="&lt;font style=&quot;font-size: 17px;&quot;&gt;L2 OUTPUT Oracle&lt;/font&gt;" style="rounded=0;whiteSpace=wrap;html=1;fillColor=none;" vertex="1" parent="1">
          <mxGeometry x="230" y="95" width="170" height="90" as="geometry" />
        </mxCell>
      </root>
    </mxGraphModel>
  </diagram>
</mxfile>
